<svg xmlns="http://www.w3.org/2000/svg" viewBox="0 0 10.454 10.454" class="svg gitea-pagure" width="16" height="16" aria-hidden="true"><path d="M34.52 21.538c0-2.344-2.093-4.22-3.636-4.22-3.133 0-4.015 3.04-2.52 4.376 1.582-1.547 2.761-1.597 2.427.418-7.564 3.42-5.837-8.935 1.82-6.078 3.41 1.962 4.365 7.588 4.996 7.078l5.704-3.831c0-4-5.082-11.868-13.662-11.874-7.499.13-11.12 5.144-11.257 10.347-.133 4.999 2.958 9.58 8.533 9.646 4.066.054 7.569-1.985 7.594-5.862" style="clip-rule:nonzero;display:inline;overflow:visible;visibility:visible;opacity:.3;isolation:auto;mix-blend-mode:normal;color-interpolation:sRGB;color-interpolation-filters:linearRGB;solid-color:#000;solid-opacity:1;stroke:none;stroke-width:.778374;stroke-linecap:round;stroke-linejoin:miter;stroke-miterlimit:4;stroke-dasharray:none;stroke-dashoffset:0;stroke-opacity:1;color-rendering:auto;image-rendering:auto;shape-rendering:auto;text-rendering:auto" transform="translate(-3.865 .402)scale(.27334)"/><path d="M72.294 106.289c-1.478.388-3.872.34-5.183.273-.529 1.02-.5 2.38.332 3.642.78 1.183 2.686 1.698 4.035 2.313-1.212-1.59-1.619-2.49-1.634-4.312 2.022.763 2.809 2.59 4.213 3.885.17-1.482-.335-3.525-1.192-4.985a6 6 0 0 0-.57-.816" style="clip-rule:nonzero;display:inline;overflow:visible;visibility:visible;opacity:1;isolation:auto;mix-blend-mode:normal;color-interpolation:sRGB;color-interpolation-filters:linearRGB;solid-color:#000;solid-opacity:1;fill-opacity:1;fill-rule:nonzero;stroke:none;stroke-width:1.24726;stroke-linecap:round;stroke-linejoin:miter;stroke-miterlimit:4;stroke-dasharray:none;stroke-dashoffset:0;stroke-opacity:1;color-rendering:auto;image-rendering:auto;shape-rendering:auto;text-rendering:auto" transform="rotate(-32.11 -49.738 65.485)scale(.4336)"/><path d="M63.15 101.3c.174-.195.373.206.375.325.008.615-.783.793-1.259.625-1.067-.375-1.3-1.769-.872-2.724.736-1.642 2.759-1.976 4.153-1.215 2.097 1.144 2.461 3.957 1.297 5.825-1.614 2.591-5.257 2.846-7.816 1.048-3.362-2.363-3.971-7.111-1.837-10.349 2.697-4.092 8.4-4.655 12.287-1.865 3.668 2.63 5.12 7.488 3.749 11.762-1.479 1.072-7.031.596-7.031.596" style="fill:none;fill-rule:evenodd;stroke:currentColor;stroke-width:1.30185;stroke-linecap:round;stroke-linejoin:miter;stroke-miterlimit:4;stroke-dasharray:none;stroke-opacity:1" transform="rotate(-32.11 -49.738 65.485)scale(.4336)"/></svg>