<?xml version="1.0" encoding="UTF-8" standalone="no"?>
<!-- Created with Inkscape (http://www.inkscape.org/) -->

<svg
   xmlns:dc="http://purl.org/dc/elements/1.1/"
   xmlns:cc="http://creativecommons.org/ns#"
   xmlns:rdf="http://www.w3.org/1999/02/22-rdf-syntax-ns#"
   xmlns:svg="http://www.w3.org/2000/svg"
   xmlns="http://www.w3.org/2000/svg"
   width="39.512001"
   height="39.512001"
   viewBox="0 0 10.454224 10.454217"
   version="1.1">
  <metadata>
    <rdf:RDF>
      <cc:Work
         rdf:about="">
        <dc:format>image/svg+xml</dc:format>
        <dc:type
           rdf:resource="http://purl.org/dc/dcmitype/StillImage" />
        <dc:title />
      </cc:Work>
    </rdf:RDF>
  </metadata>
  <g
     transform="translate(-48.767028,-31.073165)">
    <g
       transform="matrix(0.45619308,0,0,0.45619308,26.519847,-9.145808)">
      <g
         transform="matrix(0.92003825,0,0,0.92003825,3.8994993,8.9046582)">
        <g
           transform="matrix(0.87505175,-0.54912416,0.54912416,0.87505175,-52.292126,47.022454)">
          <path
             transform="matrix(0.53395907,0.33507714,-0.33507714,0.53395907,54.685595,80.121722)"
             style="clip-rule:nonzero;display:inline;overflow:visible;visibility:visible;opacity:0.3;isolation:auto;mix-blend-mode:normal;color-interpolation:sRGB;color-interpolation-filters:linearRGB;solid-color:#000000;solid-opacity:1;stroke:none;stroke-width:0.778374;stroke-linecap:round;stroke-linejoin:miter;stroke-miterlimit:4;stroke-dasharray:none;stroke-dashoffset:0;stroke-opacity:1;color-rendering:auto;image-rendering:auto;shape-rendering:auto;text-rendering:auto;enable-background:accumulate"
             d="m 34.519376,21.53842 c 0,-2.343965 -2.092585,-4.220886 -3.635184,-4.220886 -3.133047,0 -4.01491,3.041056 -2.519944,4.376926 1.58157,-1.546962 2.760757,-1.597918 2.42654,0.417442 -7.5641,3.420547 -5.836494,-8.93461 1.820842,-6.077642 3.409837,1.961992 4.364822,7.587748 4.9954,7.077416 l 5.703532,-3.831164 c 0,-3.99985 -5.081938,-11.8671544 -13.661593,-11.8735192 -7.498487,0.1300211 -11.119054,5.1439942 -11.25714,10.3466382 -0.132687,4.999231 2.957988,9.58011 8.533555,9.646318 4.065606,0.05446 7.568536,-1.984508 7.593992,-5.861529 z" />
          <path
             d="m 72.29416,106.28894 c -1.478128,0.38759 -3.872069,0.33961 -5.18357,0.27351 -0.528269,1.01876 -0.500512,2.37914 0.332437,3.64196 0.780147,1.18279 2.685594,1.69795 4.034684,2.31241 -1.212021,-1.58997 -1.618278,-2.48974 -1.633317,-4.3115 2.021654,0.76273 2.808437,2.58944 4.212318,3.88473 0.170709,-1.482 -0.334767,-3.52495 -1.191751,-4.98504 -0.181028,-0.30843 -0.372016,-0.57729 -0.570801,-0.81607 z"
             style="clip-rule:nonzero;display:inline;overflow:visible;visibility:visible;opacity:1;isolation:auto;mix-blend-mode:normal;color-interpolation:sRGB;color-interpolation-filters:linearRGB;solid-color:#000000;solid-opacity:1;fill-opacity:1;fill-rule:nonzero;stroke:none;stroke-width:1.24726;stroke-linecap:round;stroke-linejoin:miter;stroke-miterlimit:4;stroke-dasharray:none;stroke-dashoffset:0;stroke-opacity:1;color-rendering:auto;image-rendering:auto;shape-rendering:auto;text-rendering:auto;enable-background:accumulate" />
          <path
             style="fill:none;fill-rule:evenodd;stroke:currentColor;stroke-width:1.30185;stroke-linecap:round;stroke-linejoin:miter;stroke-miterlimit:4;stroke-dasharray:none;stroke-opacity:1"
             d="m 63.150641,101.29946 c 0.173541,-0.19476 0.372467,0.20616 0.374054,0.3256 0.0082,0.61511 -0.783113,0.79258 -1.258605,0.62518 -1.066654,-0.37551 -1.299961,-1.76928 -0.871913,-2.724294 0.735874,-1.6418 2.75877,-1.976179 4.15323,-1.215089 2.096886,1.144489 2.460901,3.956923 1.297046,5.825233 -1.614278,2.59134 -5.257077,2.84546 -7.816061,1.04742 -3.362364,-2.36252 -3.971391,-7.110608 -1.837672,-10.348328 2.696955,-4.092392 8.399902,-4.654783 12.2875,-1.865518 3.667361,2.631248 5.120332,7.488526 3.748305,11.762766 -1.478319,1.07177 -7.030569,0.59572 -7.030569,0.59572" />
        </g>
      </g>
    </g>
  </g>
</svg>
